<svg width="72" height="34" viewBox="0 0 72 34" fill="none" xmlns="http://www.w3.org/2000/svg">
<g id="Graph">
<path id="Vector 3" d="M3.28423 2.87855L1.25597 5.13718C1.09116 5.32071 1 5.55866 1 5.80533V32.1111C1 32.6634 1.44772 33.1111 2 33.1111H70C70.5523 33.1111 71 32.6634 71 32.1111V7.28889L68.2048 15.6933C67.9469 16.4686 66.9185 16.6242 66.4428 15.9599L65.0297 13.9864C64.7158 13.5479 64.1107 13.4373 63.662 13.7365L61.9387 14.8853C61.762 15.0031 61.6273 15.1742 61.5543 15.3738L61.072 16.6921C60.8934 17.1803 60.3706 17.4502 59.8692 17.3131L57.9307 16.7833C57.569 16.6844 57.1823 16.7963 56.9292 17.073L55.72 18.395C55.663 18.4573 55.6141 18.5267 55.5745 18.6013L53.6701 22.1912C53.227 23.0265 51.9795 22.8372 51.8041 21.9082L50.6246 15.6619C50.5555 15.296 50.2888 14.9988 49.9326 14.8906L47.9829 14.2985C47.6457 14.1961 47.2794 14.2788 47.0188 14.5162L44.9936 16.3614C44.8094 16.5292 44.5692 16.6222 44.3201 16.6222H43.1659C42.847 16.6222 42.5472 16.7743 42.3589 17.0317L41.4471 18.2778C41.3459 18.4162 41.2107 18.5262 41.0547 18.5973L39.6975 19.2156C39.4137 19.3449 39.2122 19.6061 39.1593 19.9134L39.1271 20.1005C38.9581 21.0824 37.5586 21.1114 37.349 20.1374C37.2592 19.7202 36.8904 19.4222 36.4636 19.4222H34.1381C33.908 19.4222 33.6862 19.3363 33.5161 19.1814C33.1102 18.8115 32.4732 18.8755 32.1489 19.3187L32.1253 19.351C31.7538 19.8587 31.0024 19.8774 30.606 19.3888L25.71 13.3537C25.6277 13.2522 25.5661 13.1356 25.5286 13.0104L24.9079 10.9366C24.7279 10.3353 24.045 10.0474 23.4947 10.3493C20.2289 12.1407 17.8961 13.7078 16.8667 11.6444L16.4447 10.6598C16.0435 9.72367 14.6631 9.91635 14.5336 10.9265L14.1301 14.0738C13.9891 15.1736 12.4295 15.2608 12.1667 14.1836L9.87805 4.8L9.74564 4.43808C9.49154 3.74355 8.59753 3.55559 8.08526 4.089L7.59556 4.59891C7.1768 5.03495 6.4699 5.00257 6.09276 4.53009L4.80981 2.92284C4.42424 2.43981 3.69718 2.4187 3.28423 2.87855Z" fill="url(#paint0_linear_2_16511)"/>
<path id="Vector 2" d="M1 5.42222L4.07317 2L6.80488 5.42222L9.19512 2.93333L9.87805 4.8L13.7556 20.3556L15 7.28889L16.2444 11.0222C17.3827 13.3037 20.7366 11.7689 24.561 9.77778L25.5854 13.2L31.3902 20.3556L32.7561 18.4889L33.7805 19.4222H37.1951L38.6444 25.3333L39.2439 19.4222L41.2927 18.4889L42.6585 16.6222L44.8667 20.9778L47.439 14.1333L50.5122 15.0667L52.0222 24.7111L55.6341 18.4889L57.3415 16.6222L60.7561 17.5556L61.9778 15.0667L64.4667 13.2L67.5854 17.5556L71 7.28889" stroke="#FF554B" stroke-width="1.3" stroke-linecap="round"/>
</g>
<defs>
<linearGradient id="paint0_linear_2_16511" x1="36" y1="2" x2="36" y2="33.1111" gradientUnits="userSpaceOnUse">
<stop stop-color="#FF554B" stop-opacity="0.3"/>
<stop offset="1" stop-color="#FF554B" stop-opacity="0"/>
</linearGradient>
</defs>
</svg>
