<svg width="2999" height="1082" viewBox="0 0 2999 1082" fill="none" xmlns="http://www.w3.org/2000/svg">
<path d="M494.82 179.337C476.635 179.397 458.42 179.033 440.235 179.64C425.742 180.125 411.585 184.038 402.889 196.232C381.744 225.959 362.248 256.808 343.392 288.052C335.672 299.73 327.648 311.196 320.356 323.087C305.588 347.141 288.837 369.922 275.351 394.765C262.842 414.269 250.271 433.713 237.914 453.309C230.866 464.471 224.214 475.847 217.38 487.131C210.759 497.505 203.497 507.515 197.7 518.313C190.896 530.993 189.95 544.4 197.242 557.565C203.68 571.609 212.498 584.167 221.133 596.877C230.133 611.255 239.165 625.633 248.166 640.011C255.336 652.66 262.872 665.097 271.568 676.806C279.745 689.88 287.892 702.953 296.069 715.997C304.459 728.98 312.88 741.962 321.271 754.945C329.601 767.958 337.9 780.971 346.229 793.984C354.223 806.421 362.187 818.858 370.181 831.294C377.137 842.214 384.124 853.135 391.081 864.024C395.963 871.395 400.6 878.918 405.787 886.107C410.212 892.234 416.253 895.783 424.247 894.934C427.145 895.814 429.8 896.087 432.332 895.783C462.172 898.513 492.135 896.148 522.036 896.693C528.474 896.815 525.545 892.295 523.836 889.686C515.14 876.218 506.231 862.841 497.383 849.464C489.694 835.935 481.669 822.619 472.363 810.122C465.437 797.533 457.809 785.4 449.297 773.812C441.943 760.648 433.949 747.877 424.949 735.744C417.443 722.276 409.357 709.202 400.051 696.887C392.729 683.267 384.399 670.315 375.154 657.908C368.075 646.139 361.637 633.945 353.003 623.116C344.246 610.194 337.656 595.906 327.648 583.773C325.634 580.285 323.895 576.614 321.576 573.338C313.521 561.933 307.358 549.982 307.785 535.967C308.182 534.481 308.334 532.843 308.182 530.993C310.714 522.348 315.169 514.734 320.081 507.211C333.14 487.131 345.924 466.868 358.8 446.666C380.432 415.058 400.875 382.753 420.463 349.872C440.418 320.236 459.213 289.872 477.794 259.356C494.606 232.997 511.387 206.637 528.84 179.276C516.025 179.337 505.438 179.337 494.82 179.337Z" fill="url(#paint0_linear_417_3)"/>
<path d="M950.962 744.628C936.317 652.11 875.782 572.727 792.608 526.863C791.296 524.74 791.784 523.799 794.103 522.283C884.051 464.133 926.98 338.188 906.721 236.359C892.106 162.891 847.101 96.1269 785.133 53.5689C703.484 -2.48743 614.055 0.424621 519.562 0.424621C493.352 0.424621 467.143 0.424621 440.964 0.424621C413.382 0.424621 385.8 0.424621 358.218 0.424621C332.008 0.424621 305.83 0.424621 279.62 0.424621C245.814 0.272954 212.007 0.151668 178.231 0C176.522 0 174.783 0.0302854 173.96 1.9413C171.641 24.0544 172.983 46.198 172.983 68.3414C172.8 70.2828 172.678 72.224 172.983 74.1351C172.678 112.325 173.075 150.515 172.8 188.705C172.8 188.887 172.831 189.038 172.831 189.22C172.8 189.797 172.8 190.373 172.892 190.919C173.288 197.532 175.973 200.171 183.998 199.989C207.064 199.413 230.161 199.655 253.228 199.868C260.124 199.928 263.358 197.805 263.205 190.464C262.809 171.627 262.9 152.82 262.778 133.983C262.9 124.064 263.327 114.145 263.022 104.226C262.748 94.5192 267.141 90.6365 276.691 90.7275C292.862 90.9095 309.064 90.5758 325.235 90.4545C350.071 90.4545 374.907 90.4242 399.744 90.4242C453.901 90.3939 508.089 88.4828 562.247 89.9995C610.516 91.3645 666.565 91.3039 710.441 114.115C742.142 130.586 768.168 154.155 788.001 183.882C826.75 241.91 827.055 319.169 797.429 381.08C760.174 458.916 682.981 490.129 601.332 496.438C596.664 496.802 590.379 496.165 589.768 503.658C587.389 521.979 589.006 540.361 588.792 558.683C588.487 583.465 589.982 584.709 614.818 584.011C692.805 581.797 772.318 601.635 821.472 666.64C859.123 716.448 871.388 784.273 853.57 844C835.721 903.727 788.214 953.929 729.327 975.223C665.955 998.155 594.04 989.813 527.952 989.813C501.743 989.813 475.503 989.813 449.294 989.813C423.085 989.813 396.876 989.813 370.697 989.813C345.861 989.813 321.055 989.813 296.219 989.813C293.473 989.692 290.757 989.51 288.011 989.48C262.595 989.358 262.595 989.358 260.978 964.788C260.978 946.982 260.978 929.146 260.978 911.34C261.375 904.606 261.924 897.842 262.107 891.108C262.29 884.04 259.88 879.399 251.397 880.097C243.617 880.734 235.776 880.582 227.965 880.795C212.495 880.582 196.996 880.613 181.526 880.097C174.265 879.854 171.58 882.948 171.824 889.834C172.19 900.42 172.281 911.037 172.495 921.624C172.495 938.064 172.495 954.536 172.495 970.976C172.495 988.782 172.495 1006.59 172.495 1024.36C172.281 1038.68 171.976 1053.03 171.915 1067.35C171.885 1071.35 171.549 1075.75 176.339 1077.87C180.306 1080.63 184.822 1081.94 189.581 1081.94C209.993 1081.94 230.406 1081.75 250.848 1081.63C277.027 1081.63 303.206 1081.63 329.384 1081.63C355.594 1081.63 381.833 1081.63 408.043 1081.63C434.252 1081.63 460.461 1081.63 486.67 1081.63C513.551 1081.63 540.401 1081.63 567.282 1081.63C590.989 1081.75 614.696 1081.85 638.404 1082C641.211 1082.03 643.926 1081.88 645.97 1079.6C676.116 1080.36 705.773 1077.2 734.911 1069.32C748.153 1067.07 760.693 1062.43 772.989 1057.28C878.803 1012.59 952.579 907.731 954.501 792.736C954.623 776.417 953.433 760.34 950.962 744.628Z" fill="url(#paint1_linear_417_3)"/>
<path d="M87.4492 691.145C87.3272 676.797 87.2356 662.449 87.1746 648.101C87.1746 628.9 87.1746 609.699 87.1746 590.498C87.1746 573.359 87.1746 556.221 87.1746 539.083C87.1746 520.579 87.1746 502.076 87.1746 483.542C87.1746 465.039 87.1746 446.535 87.1746 428.001C87.1746 409.498 87.1746 390.995 87.1746 372.491C88.5171 344.22 88.6697 315.919 88.5781 287.618C88.5476 275.727 88.4561 263.836 88.4256 251.946C88.3951 246 88.3951 240.055 88.3645 234.11C88.3645 228.771 90.6529 217.972 85.4965 214.272C81.1028 211.087 73.7496 212.209 68.6542 212.179C47.7843 212.027 26.884 211.966 6.01418 211.693C1.65104 211.633 -0.0881141 213.058 0.00342023 217.548C0.339046 232.168 0.369564 246.819 0.522121 261.44C0.522121 280.641 0.522121 299.842 0.522121 319.013C0.522121 337.517 0.522121 356.02 0.522121 374.523C0.522121 393.725 0.522121 412.926 0.522121 432.127C0.522121 450.63 0.522121 469.134 0.522121 487.637C0.522121 505.473 0.522121 523.309 0.522121 541.115C0.522121 559.618 0.522121 578.122 0.522121 596.656C0.522121 613.794 0.522121 630.932 0.522121 648.071C0.522121 667.939 0.522121 687.808 0.522121 707.676C0.522121 728.242 0.522121 748.808 0.522121 769.375C0.522121 787.878 0.522121 806.381 0.522121 824.915C0.369564 832.104 0.125469 839.293 0.125469 846.482C0.0644459 866.806 0.0949554 866.806 21.1478 865.744C38.6614 865.744 56.175 865.774 73.658 865.774C87.9374 865.774 88.5476 865.228 88.5476 850.668C88.5781 797.463 87.8764 744.319 87.4492 691.145Z" fill="url(#paint2_linear_417_3)"/>
<path d="M1353.98 355.86L1244.48 503.979L1353.98 701.238H1263.12L1191.66 575.263L1153.61 626.557V701.238H1066.87V355.86H1153.61V509.287L1263.12 355.86H1353.98Z" fill="#2A2A2A"/>
<path d="M1396.36 668.766C1368.99 645.409 1351.54 608.311 1351.54 565.662C1351.54 523.013 1368.99 485.703 1396.36 462.316C1423.73 439.202 1460.8 425.703 1501.26 425.703C1541.23 425.703 1578.54 439.202 1605.91 462.316C1633.28 485.673 1650.73 523.013 1650.73 565.662C1650.73 608.311 1633.28 645.379 1605.91 668.766C1578.54 692.123 1541.23 705.378 1501.26 705.378C1460.83 705.348 1423.76 692.123 1396.36 668.766ZM1501.29 637.188C1520.42 637.188 1536.65 630.455 1549.98 617.199C1563.07 603.943 1569.6 586.623 1569.6 565.662C1569.6 544.702 1563.07 527.351 1549.98 514.125C1536.65 500.87 1520.42 494.136 1501.29 494.136C1482.16 494.136 1465.92 500.87 1452.83 514.125C1439.5 527.381 1432.97 544.702 1432.97 565.662C1432.97 586.623 1439.5 603.973 1452.83 617.199C1465.89 630.455 1482.12 637.188 1501.29 637.188Z" fill="#2A2A2A"/>
<path d="M1696 384.441C1686.54 375.037 1681.93 363.966 1681.93 350.952C1681.93 337.939 1686.54 326.868 1696 317.464C1705.21 308.304 1716.35 303.723 1729.68 303.723C1742.53 303.723 1753.66 308.304 1763.12 317.464C1772.34 326.868 1776.94 337.939 1776.94 350.952C1776.94 363.966 1772.34 375.037 1763.12 384.441C1753.66 393.844 1742.53 398.424 1729.68 398.424C1716.35 398.424 1705.21 393.844 1696 384.441ZM1688.73 429.971H1770.14V701.184H1688.73V429.971Z" fill="#2A2A2A"/>
<path d="M2012.19 701.242V565.621C2012.19 518.664 1996.69 494.337 1960.59 494.337C1922.55 494.337 1901.25 521.546 1901.25 565.621V701.242H1819.81V430.03H1897.59L1901.22 465.914C1916.47 439.19 1945.8 425.692 1988.7 425.692C2026.01 425.692 2052.89 437.492 2069.12 461.334C2085.36 485.176 2093.59 519.847 2093.59 565.621V701.242H2012.19Z" fill="#2A2A2A"/>
<path d="M2419.82 551.178C2431.68 566.587 2437.51 585.152 2437.51 606.81C2437.51 634.747 2427.57 657.406 2407.46 674.969C2387.35 692.532 2362.88 701.238 2333.56 701.238H2145.79V355.86H2321.2C2350.77 355.86 2375.48 364.05 2395.35 380.43C2415.21 397.053 2425.16 418.984 2425.16 446.679C2425.16 487.144 2405.78 513.413 2378.63 522.058C2394.16 526.153 2407.95 535.768 2419.82 551.178ZM2232.54 422.564V496.274H2303.05C2312.97 496.274 2321.23 492.665 2328.01 485.688C2334.78 478.711 2338.17 469.793 2338.17 459.207C2338.17 448.863 2334.78 439.945 2328.01 432.938C2321.23 425.931 2313 422.594 2303.05 422.594H2232.54V422.564ZM2315.41 634.777C2325.32 634.777 2333.59 631.167 2340.61 624.191C2347.38 617.214 2350.77 608.296 2350.77 597.679C2350.77 587.335 2347.38 578.417 2340.61 571.41C2333.83 564.403 2325.35 560.824 2315.41 560.824H2232.54V634.777H2315.41Z" fill="#2A2A2A"/>
<path d="M2782.13 355.86L2678.42 528.549L2782.13 701.238H2687.64L2615.94 583.938L2544.23 701.238H2449.74L2553.45 528.549L2449.74 355.86H2544.23L2615.94 473.403L2687.64 355.86H2782.13Z" fill="url(#paint3_linear_417_3)"/>
<path d="M1729.38 402.369C1757.88 402.369 1780.98 379.404 1780.98 351.075C1780.98 322.746 1757.88 299.781 1729.38 299.781C1700.89 299.781 1677.79 322.746 1677.79 351.075C1677.79 379.404 1700.89 402.369 1729.38 402.369Z" fill="url(#paint4_linear_417_3)"/>
<path fill-rule="evenodd" clip-rule="evenodd" d="M2921.42 438.996C2955.56 438.996 2983.25 411.315 2983.25 377.168C2983.25 343.021 2955.56 315.339 2921.42 315.339C2887.27 315.339 2859.59 343.021 2859.59 377.168C2859.59 411.315 2887.27 438.996 2921.42 438.996ZM2921.42 454.453C2964.1 454.453 2998.7 419.851 2998.7 377.168C2998.7 334.484 2964.1 299.882 2921.42 299.882C2878.73 299.882 2844.13 334.484 2844.13 377.168C2844.13 419.851 2878.73 454.453 2921.42 454.453Z" fill="#2A2A2A"/>
<path d="M2899.91 409.624V346.376H2924.86C2929.64 346.376 2933.71 347.231 2937.09 348.94C2940.49 350.628 2943.07 353.026 2944.84 356.135C2946.63 359.224 2947.53 362.857 2947.53 367.037C2947.53 371.237 2946.62 374.85 2944.81 377.877C2943 380.882 2940.37 383.188 2936.94 384.794C2933.52 386.4 2929.38 387.203 2924.52 387.203H2907.81V376.456H2922.36C2924.91 376.456 2927.03 376.106 2928.72 375.406C2930.41 374.706 2931.66 373.656 2932.49 372.256C2933.33 370.856 2933.75 369.116 2933.75 367.037C2933.75 364.937 2933.33 363.166 2932.49 361.725C2931.66 360.284 2930.4 359.193 2928.69 358.452C2927 357.69 2924.87 357.309 2922.3 357.309H2913.28V409.624H2899.91ZM2934.06 380.841L2949.78 409.624H2935.02L2919.64 380.841H2934.06Z" fill="#2A2A2A"/>
<defs>
<linearGradient id="paint0_linear_417_3" x1="265.316" y1="332.315" x2="676.381" y2="745.79" gradientUnits="userSpaceOnUse">
<stop stop-color="#26977D"/>
<stop offset="1" stop-color="#93C544"/>
</linearGradient>
<linearGradient id="paint1_linear_417_3" x1="45.0786" y1="129.712" x2="885.743" y2="975.306" gradientUnits="userSpaceOnUse">
<stop stop-color="#26977D"/>
<stop offset="1" stop-color="#93C544"/>
</linearGradient>
<linearGradient id="paint2_linear_417_3" x1="-141.349" y1="354.791" x2="226.322" y2="724.619" gradientUnits="userSpaceOnUse">
<stop stop-color="#26977D"/>
<stop offset="1" stop-color="#26976D"/>
</linearGradient>
<linearGradient id="paint3_linear_417_3" x1="2416.06" y1="413.825" x2="2814.64" y2="645.293" gradientUnits="userSpaceOnUse">
<stop stop-color="#26977D"/>
<stop offset="1" stop-color="#93C544"/>
</linearGradient>
<linearGradient id="paint4_linear_417_3" x1="1677.76" y1="351.066" x2="1780.97" y2="351.066" gradientUnits="userSpaceOnUse">
<stop stop-color="#26977D"/>
<stop offset="1" stop-color="#93C544"/>
</linearGradient>
</defs>
</svg>
