<svg width="18" height="18" viewBox="0 0 18 18" fill="none" xmlns="http://www.w3.org/2000/svg">
<path d="M3.90659 0C4.35169 0.152124 4.51695 0.469519 4.50944 0.929647C4.49207 1.84239 4.50474 2.75561 4.50381 3.66882C4.50381 4.19327 4.20003 4.49799 3.67701 4.49846C2.7286 4.49846 1.78036 4.49846 0.832269 4.49846C0.308771 4.49799 0.00640881 4.19374 0.0059393 3.66882C0.00500029 2.75561 0.0181465 1.84239 0.000305233 0.929647C-0.00814587 0.466702 0.158059 0.151655 0.603151 0H3.90659Z" fill="#1E2329"/>
<path d="M10.6542 0C11.0988 0.152124 11.2646 0.469519 11.2571 0.929647C11.2397 1.84239 11.2524 2.75561 11.2514 3.66882C11.2514 4.19327 10.9476 4.49799 10.4246 4.49846C9.47621 4.49846 8.52797 4.49846 7.57988 4.49846C7.05638 4.49846 6.75402 4.19374 6.75355 3.66882C6.75355 2.75561 6.76576 1.84239 6.74839 0.929647C6.73947 0.466702 6.90567 0.151655 7.35076 0L10.6542 0Z" fill="#1E2329"/>
<path d="M17.9999 3.90123C17.8469 4.34493 17.5328 4.51161 17.0698 4.50363C16.1567 4.48625 15.243 4.4994 14.3298 4.49846C13.8054 4.49846 13.5021 4.19421 13.5016 3.66976C13.5016 2.75655 13.5138 1.84286 13.4964 0.929648C13.4875 0.466702 13.6537 0.151655 14.0988 0H17.4023C17.5439 0.0417157 17.6728 0.118284 17.7772 0.222699C17.8817 0.327115 17.9582 0.456046 17.9999 0.597698V3.90123Z" fill="#1E2329"/>
<path d="M18.0003 10.6492C17.8472 11.0924 17.5336 11.2595 17.0702 11.2516C16.1575 11.2342 15.2443 11.2469 14.3311 11.2464C13.8062 11.2464 13.5024 10.9426 13.502 10.4191C13.502 9.4713 13.502 8.52303 13.502 7.57429C13.502 7.0503 13.8057 6.7484 14.3316 6.74793C15.2448 6.74793 16.1579 6.76014 17.0707 6.74277C17.5336 6.73385 17.8477 6.90147 18.0003 7.34516V10.6492Z" fill="#1E2329"/>
<path d="M18.0003 17.3971C17.8472 17.8403 17.5336 18.0075 17.0702 17.9995C16.1575 17.9821 15.2443 17.9948 14.3311 17.9943C13.8062 17.9943 13.5024 17.6905 13.502 17.167C13.502 16.2186 13.502 15.2703 13.502 14.3222C13.502 13.7982 13.8057 13.4963 14.3316 13.4959C15.2448 13.4959 16.1579 13.5081 17.0707 13.4907C17.5336 13.4818 17.8477 13.6494 18.0003 14.0931V17.3971Z" fill="#1E2329"/>
<path d="M4.50553 9.01472C4.50553 9.49504 4.50553 9.97536 4.50553 10.4552C4.50553 10.9351 4.18908 11.2449 3.70737 11.2459C2.73706 11.2478 1.76502 11.2478 0.791268 11.2459C0.321762 11.2459 0.00719279 10.9294 0.00578427 10.4637C0.00328024 9.4855 0.00328024 8.50749 0.00578427 7.52964C0.00578427 7.0634 0.32364 6.74977 0.792207 6.74836C1.77034 6.74648 2.74817 6.74648 3.72568 6.74836C4.18204 6.74836 4.49942 7.06575 4.50271 7.52119C4.50881 8.01934 4.50553 8.51703 4.50553 9.01472Z" fill="#1E2329"/>
<path d="M9.00847 6.74795C9.48831 6.74795 9.96861 6.74795 10.4489 6.74795C10.9396 6.74795 11.2518 7.05877 11.2527 7.54613C11.2527 8.5124 11.2527 9.47852 11.2527 10.4445C11.2527 10.9328 10.9386 11.2427 10.4484 11.2427C9.4822 11.2427 8.51596 11.2427 7.54972 11.2427C7.07082 11.2427 6.75625 10.9285 6.75531 10.4515C6.75344 9.48118 6.75344 8.50912 6.75531 7.53533C6.75531 7.0583 7.07035 6.74701 7.55019 6.74513C8.03002 6.74326 8.52206 6.74795 9.00847 6.74795Z" fill="#1E2329"/>
<path d="M2.26043 13.4958C2.74026 13.4958 3.22057 13.4958 3.70087 13.4958C4.19103 13.4958 4.50279 13.8071 4.50372 14.2964C4.50372 15.2626 4.50372 16.2288 4.50372 17.1947C4.50372 17.6825 4.18916 17.9929 3.69852 17.9929C2.73791 17.9929 1.77762 17.9929 0.817635 17.9929C0.315733 17.9934 0.00679839 17.6849 0.00585938 17.1844C0.00585938 16.2237 0.00585938 15.2634 0.00585938 14.3034C0.00585938 13.8034 0.316203 13.4972 0.819982 13.4958C1.29982 13.4949 1.78012 13.4958 2.26043 13.4958Z" fill="#1E2329"/>
<path d="M9.00894 13.4958C9.48925 13.4958 9.96955 13.4958 10.4494 13.4958C10.9395 13.4958 11.2518 13.8071 11.2527 14.294C11.2527 15.2603 11.2527 16.2265 11.2527 17.1928C11.2527 17.6802 10.9381 17.991 10.4475 17.991C9.48127 17.991 8.51518 17.991 7.54925 17.991C7.07035 17.991 6.75625 17.6764 6.75531 17.1989C6.75344 16.2286 6.75344 15.2567 6.75531 14.2832C6.75531 13.8057 7.07082 13.4953 7.55347 13.4935C8.03613 13.4916 8.523 13.4958 9.00894 13.4958Z" fill="#1E2329"/>
</svg>
