<svg width="16" height="15" viewBox="0 0 16 15" fill="none" xmlns="http://www.w3.org/2000/svg">
<g clip-path="url(#clip0_1499_719)">
<path d="M15.999 7.44856C15.8974 7.67922 15.828 7.93246 15.6893 8.1357C15.3893 8.57282 14.9457 8.76799 14.4182 8.77928C14.3876 8.77928 14.3553 8.77928 14.3247 8.77928C10.1067 8.77928 5.88872 8.77767 1.67236 8.78089C1.23363 8.78089 0.846506 8.66153 0.50939 8.37119C-0.156776 7.80019 -0.156776 6.65658 0.50939 6.0872C0.828763 5.8146 1.1933 5.67911 1.60945 5.67911C5.86937 5.67911 10.1277 5.6775 14.3876 5.68072C15.2022 5.68072 15.7877 6.16301 15.9732 6.9566C15.978 6.97595 15.9909 6.99208 15.999 7.00983C15.999 7.15661 15.999 7.30339 15.999 7.44856Z" fill="#1D1D1D"/>
<path d="M15.9994 1.7614C15.9172 2.04045 15.8301 2.31466 15.6333 2.54209C15.3381 2.88243 14.9671 3.0647 14.5203 3.10019C14.4687 3.10503 14.4155 3.10341 14.3639 3.10341C10.1185 3.10341 5.87307 3.10341 1.62928 3.10341C0.966344 3.10341 0.471155 2.8163 0.159847 2.22594C-0.256305 1.44042 0.17759 0.367777 1.02764 0.106473C1.23249 0.043566 1.45508 0.0113061 1.66961 0.00969313C5.8892 0.00485415 10.1072 0.0145321 14.3268 1.51765e-05C15.1316 -0.00321081 15.8349 0.508108 15.9769 1.29847C15.9801 1.31783 15.9914 1.33719 15.9994 1.35493C15.9994 1.49042 15.9994 1.62591 15.9994 1.7614Z" fill="#1D1D1D"/>
<path d="M16.0003 13.1052C15.9213 13.4085 15.8197 13.7004 15.5987 13.9375C15.3084 14.2472 14.9551 14.4247 14.5293 14.4505C14.4728 14.4537 14.4148 14.4537 14.3567 14.4537C10.1161 14.4537 5.87722 14.4521 1.63666 14.4553C1.09469 14.4553 0.657574 14.2618 0.317233 13.8391C-0.318286 13.052 0.0543152 11.7713 1.01727 11.4616C1.21728 11.3971 1.43503 11.3616 1.64311 11.3616C5.87722 11.3551 10.1129 11.3616 14.347 11.3535C15.1342 11.3519 15.8326 11.8584 15.9745 12.66C15.9778 12.6746 15.989 12.6859 15.9971 12.7004C16.0003 12.8343 16.0003 12.9697 16.0003 13.1052Z" fill="#1D1D1D"/>
</g>
<defs>
<clipPath id="clip0_1499_719">
<rect width="16" height="15" fill="white"/>
</clipPath>
</defs>
</svg>
