<svg width="72" height="34" viewBox="0 0 72 34" fill="none" xmlns="http://www.w3.org/2000/svg">
<path d="M4.07317 2L1 5.42222V33.1111H71V15.0667L67.5854 17.5556L65.5366 15.0667L62.4634 16.6222L60.7561 17.5556L57.3415 16.6222L55.6341 18.4889L53.9268 20.3556L50.5122 15.0667L47.439 14.1333L44.7073 16.6222H42.6585L41.2927 18.4889L39.2439 19.4222L37.878 20.9778L37.1951 19.4222H33.7805L32.7561 18.4889L31.3902 20.3556L25.5854 13.2L24.561 9.77778C20.7366 11.7689 17.5041 7.7037 16.3659 5.42222L15 7.28889V9.77778L9.87805 4.8L9.19512 2.93333L6.80488 5.42222L4.07317 2Z" fill="url(#paint0_linear_2_20910)"/>
<path d="M1 5.42222L4.07317 2L6.80488 5.42222L9.19512 2.93333L9.87805 4.8L15 9.77778V7.28889L16.3659 5.42222C17.5041 7.7037 20.7366 11.7689 24.561 9.77778L25.5854 13.2L31.3902 20.3556L32.7561 18.4889L33.7805 19.4222H37.1951L37.878 20.9778L39.2439 19.4222L41.2927 18.4889L42.6585 16.6222H44.7073L47.439 14.1333L50.5122 15.0667L53.9268 20.3556L55.6341 18.4889L57.3415 16.6222L60.7561 17.5556L62.4634 16.6222L65.5366 15.0667L67.5854 17.5556L71 15.0667" stroke="#1FA62D" stroke-width="1.3" stroke-linecap="round"/>
<defs>
<linearGradient id="paint0_linear_2_20910" x1="36" y1="2" x2="36" y2="33.1111" gradientUnits="userSpaceOnUse">
<stop stop-color="#0DBA4B" stop-opacity="0.3"/>
<stop offset="1" stop-color="#0DBA4B" stop-opacity="0"/>
</linearGradient>
</defs>
</svg>
